<svg xmlns="http://www.w3.org/2000/svg" width="1000" height="131.874"><defs><clipPath id="a" clipPathUnits="userSpaceOnUse"><path d="M0 0h612v792H0V0z"/></clipPath></defs><g clip-path="url(#a)" transform="matrix(9.90119 0 0 -9.90119 -2490.842 1647.096)"><path d="M326.224 153.336h2.855v12.717h-2.855v-12.717zm13.002 4.683-4.867 8.033h-2.835v-12.716h2.727v8.034l5.03-8.034h2.672v12.716h-2.727v-8.033zm7.638-2.225v2.86h4.663v2.273h-4.663v2.667h5.455v2.458h-8.313v-12.716h8.512v2.458h-5.654zm-26.644 1.71-2.365 8.548h-2.21l-2.455-8.547-2.092 8.547h-2.785l3.322-12.716h2.534l2.45 7.963 2.492-7.963h2.437l3.418 12.716h-2.728l-2.018-8.547zm-68.6-4.168h2.91v4.996h4.59v2.458h-4.645v2.804h5.437v2.458h-8.291v-12.716zm14.756 12.967c-4.021 0-5.71-3.005-5.71-6.608 0-3.606 1.689-6.61 5.71-6.61 4.023 0 5.712 3.004 5.712 6.61 0 3.603-1.69 6.608-5.712 6.608m0-10.761c-1.848 0-2.765 1.624-2.765 4.153 0 2.525.917 4.15 2.765 4.15 1.849 0 2.766-1.625 2.766-4.15 0-2.53-.917-4.153-2.766-4.153m42.473-2.065c-.366 0-1.06.233-1.477.483-.36.21-.942.565-1.813 1.29.662.79 1.289 2.058 1.289 3.096 0 .144-.12.233-.342.258-.731.079-1.256.093-1.567.093-.107 0-.21-.028-.21-.112l.156-.095c.196 0 .472-.04.64-.205.197-.176.25-.424.25-.621 0-.8-.334-1.66-.647-2.095-.335.289-1.945 1.768-2.388 2.264-1.203 1.32-2.12 2.269-2.12 3.397 0 1.17.863 1.6 1.53 1.6.654 0 1.106-.274 1.38-.58.308-.341.393-.767.393-1.107 0-.195.013-.247.085-.247.066 0 .112.025.144.222.039.196.118 1.177.118 1.59 0 .157-.006.247-.196.334-.352.169-.927.3-1.585.3-2.012 0-3-1.373-2.993-2.407.006-.59.136-1.125.652-1.833-.9-.49-2.065-1.594-2.065-3.125 0-1.14.864-2.892 3.406-2.892 1.865 0 2.82.957 3.186 1.302 1.282-1.002 1.676-1.12 2.904-1.12h1.145c.203 0 .309.039.309.107 0 .089-.065.103-.184.103m-6.907.368c-1.412 0-2.565 1.11-2.565 2.746 0 1.046.477 1.706 1.04 2.092.295-.43 1.13-1.366 1.472-1.73a38.866 38.866 0 0 1 2.36-2.233c-.36-.36-1.195-.875-2.307-.875m-12.843 12.207h-3.16v-12.716h3.16c4.324 0 6.98 1.84 6.98 6.359 0 4.517-2.656 6.357-6.98 6.357m.316-10.258h-.621v7.8h.62c2.62 0 3.773-.987 3.773-3.9s-1.153-3.9-3.772-3.9m-10.42 10.509c-4.022 0-5.712-3.005-5.712-6.608 0-3.606 1.69-6.61 5.712-6.61 4.023 0 5.71 3.004 5.71 6.61 0 3.603-1.687 6.608-5.71 6.608m0-10.761c-1.848 0-2.764 1.624-2.764 4.153 0 2.525.916 4.15 2.764 4.15 1.849 0 2.766-1.625 2.766-4.15 0-2.53-.917-4.153-2.766-4.153" style="fill:#231f20;fill-opacity:1;fill-rule:nonzero;stroke:none"/></g></svg>